<svg xmlns="http://www.w3.org/2000/svg" width="1058" height="262" viewBox="0 0 1058 262">
  <defs>
    <style>
      .cls-1 {
        fill: #48656c;
      }

      .cls-2 {
        fill: #6c6f20;
      }

      .cls-3 {
        fill: #576f72;
      }

      .cls-4 {
        fill: #6c6421;
      }

      .cls-5, .cls-6, .cls-8 {
        fill: #fff;
      }

      .cls-5 {
        opacity: 0.5;
      }

      .cls-6 {
        opacity: 0.25;
      }

      .cls-7 {
        fill: #111;
      }

      .cls-7, .cls-8 {
        fill-rule: evenodd;
      }
    </style>
  </defs>
  <rect class="cls-1" y="174" width="266" height="88"/>
  <rect class="cls-2" x="266" y="174" width="270" height="88"/>
  <rect class="cls-3" x="536" y="174" width="260" height="88"/>
  <rect class="cls-4" x="796" y="174" width="262" height="88"/>
  <rect class="cls-5" y="256" width="84" height="6"/>
  <rect class="cls-5" x="182" y="256" width="84" height="6"/>
  <rect class="cls-5" x="362" y="256" width="82" height="6"/>
  <rect class="cls-5" x="536" y="256" width="82" height="6"/>
  <rect class="cls-5" x="714" y="256" width="82" height="6"/>
  <rect class="cls-5" x="892" y="256" width="84" height="6"/>
  <rect id="Rectangle_5_copy" data-name="Rectangle 5 copy" class="cls-6" x="90" y="256" width="84" height="6"/>
  <rect id="Rectangle_6_copy" data-name="Rectangle 6 copy" class="cls-6" x="272" y="256" width="84" height="6"/>
  <rect id="Rectangle_7_copy" data-name="Rectangle 7 copy" class="cls-6" x="452" y="256" width="82" height="6"/>
  <rect id="Rectangle_8_copy" data-name="Rectangle 8 copy" class="cls-6" x="626" y="256" width="82" height="6"/>
  <rect id="Rectangle_9_copy" data-name="Rectangle 9 copy" class="cls-6" x="804" y="256" width="82" height="6"/>
  <rect id="Rectangle_10_copy" data-name="Rectangle 10 copy" class="cls-6" x="982" y="256" width="76" height="6"/>
  <path id="Hello_World_48656c6c6f20576f726c6421" data-name="Hello World! 48656c6c6f20576f726c6421" class="cls-7" d="M1046.55,124.835a13.513,13.513,0,0,1-20.31-11.734,13.464,13.464,0,0,1,13.46-13.456A13.525,13.525,0,0,1,1046.55,124.835Zm-15.8-40.862L1027.96,10.7h23.31l-2.63,73.272h-17.89Zm-56.642,29.949a31.048,31.048,0,0,1-10.379,9.354A28.208,28.208,0,0,1,949.9,126.64q-16,0-24.164-12.308t-8.164-33.723a63.456,63.456,0,0,1,4.143-23.672,36.845,36.845,0,0,1,11.939-16.246,29.578,29.578,0,0,1,18.3-5.867,27.807,27.807,0,0,1,21,8.78V0.281l21.662,2.3v121.6h-19.2Zm-1.149-54.4q-6.318-8.533-15.179-8.533a14.569,14.569,0,0,0-13.046,7.3q-4.6,7.3-4.6,22.4,0,15.754,4.144,22.728t11.938,6.975q9.6,0,16.738-11.324V59.522ZM880.325,126.64q-14.031,0-21.416-7.959t-7.384-22.072V17.922h-26.01V2.578h47.671V98.906q0,10.421,12.308,10.421a35.292,35.292,0,0,0,13.046-2.708l5.334,14.769Q893.7,126.638,880.325,126.64ZM819.687,55.5a38.383,38.383,0,0,0-10.01-1.395,21.173,21.173,0,0,0-15.631,6.851q-6.689,6.852-10.461,19.159v29.046H800.9v15.015H749.7V109.163h12.225V52.219H749.7V37.286h28.717l4.021,19.939q4.84-11.24,12.1-16.78t18.01-5.538a38.608,38.608,0,0,1,7.179.615,42.552,42.552,0,0,1,6.441,1.764ZM716.433,121.019q-9.15,5.619-21.867,5.621-12.8,0-21.908-5.5a35.076,35.076,0,0,1-13.866-15.836q-4.76-10.338-4.759-24.615,0-13.619,4.8-24a36.727,36.727,0,0,1,13.948-16.123q9.149-5.742,21.867-5.744,12.8,0,21.908,5.621a35.63,35.63,0,0,1,13.825,15.918q4.717,10.3,4.718,24.164,0,14.114-4.759,24.492A35.71,35.71,0,0,1,716.433,121.019Zm-8.328-62.687q-4.431-7.179-13.457-7.179-9.191,0-13.62,7.179T676.6,80.691q0,15.344,4.431,22.482t13.538,7.139q9.108,0,13.539-7.18t4.43-22.605Q712.535,65.512,708.105,58.332ZM606.819,124.178l-9.928-82.707-10.5,82.708H561.2L547.578,10.7h21.415l6.728,93.046L586.552,23.83h21.169l10.257,79.918L626.347,10.7H646.2L631.516,124.178h-24.7Zm-189.781-3.159q-9.15,5.619-21.866,5.621-12.8,0-21.908-5.5A35.072,35.072,0,0,1,359.4,105.306q-4.76-10.338-4.759-24.615,0-13.619,4.8-24a36.729,36.729,0,0,1,13.949-16.123q9.148-5.742,21.867-5.744,12.8,0,21.907,5.621a35.632,35.632,0,0,1,13.826,15.918q4.717,10.3,4.718,24.164,0,14.114-4.759,24.492A35.706,35.706,0,0,1,417.038,121.019ZM408.71,58.332q-4.431-7.179-13.456-7.179-9.191,0-13.621,7.179T377.2,80.691q0,15.344,4.431,22.482t13.539,7.139q9.106,0,13.538-7.18t4.431-22.605Q413.141,65.512,408.71,58.332ZM317.776,126.64q-14.031,0-21.415-7.959t-7.385-22.072V17.922h-26.01V2.578h47.672V98.906q0,10.421,12.307,10.421a35.288,35.288,0,0,0,13.046-2.708l5.334,14.769Q331.149,126.638,317.776,126.64Zm-79.132,0q-14.03,0-21.415-7.959t-7.385-22.072V17.922h-26.01V2.578h47.672V98.906q0,10.421,12.308,10.421a35.292,35.292,0,0,0,13.046-2.708l5.333,14.769Q252.019,126.638,238.644,126.64Zm-114.506-39.3q0.9,11.735,6.934,17.395t15.466,5.662a35.108,35.108,0,0,0,11.487-1.888,48.942,48.942,0,0,0,11.077-5.579l9.026,12.39a46.966,46.966,0,0,1-14.769,8.328,54.174,54.174,0,0,1-18.216,3q-13.866,0-23.589-5.744a36.688,36.688,0,0,1-14.688-16.082Q101.9,94.476,101.9,80.855a54.929,54.929,0,0,1,4.882-23.508A38.853,38.853,0,0,1,120.9,40.855q9.231-6.031,21.785-6.031a39.369,39.369,0,0,1,20.6,5.251,34.64,34.64,0,0,1,13.538,15.139q4.758,9.888,4.759,23.508a83.659,83.659,0,0,1-.41,8.615H124.138Zm31.713-31.179q-4.473-6.071-13.087-6.072a16.4,16.4,0,0,0-13.087,5.785q-4.966,5.785-5.785,17.6h36.6Q160.322,62.23,155.851,56.158ZM61.344,74.291H28.524v49.887H6.041V10.7H28.524V55.83H61.344V10.7H83.826V124.178H61.344V74.291Z"/>
  <path class="cls-8" d="M536,245.062m490.08-.884v-5.41h13.39V196.991l-12.48,7.582-2.88-4.739,16.19-10.03h5.8v48.964h11.37v5.41h-31.39Zm-13.92,0H979.82v-5.41q10.7-10.266,15.835-15.992a45.153,45.153,0,0,0,7.105-9.812,19.544,19.544,0,0,0,1.98-8.628,9.9,9.9,0,0,0-2.59-7.246,9.541,9.541,0,0,0-7.127-2.626,14.194,14.194,0,0,0-6.5,1.323,17.55,17.55,0,0,0-5.232,4.481l-4.58-3.553a19.773,19.773,0,0,1,16.624-7.779,18.36,18.36,0,0,1,8.731,1.974,13.972,13.972,0,0,1,5.68,5.41,15.292,15.292,0,0,1,1.98,7.779,21.906,21.906,0,0,1-2.33,9.753,47.232,47.232,0,0,1-7.49,10.425q-5.148,5.685-14.548,14.255h25.628ZM920.571,196.6a15.543,15.543,0,0,0-8.253-2.29,10.278,10.278,0,0,0-7.088,2.665,17.071,17.071,0,0,0-4.6,7.562,39.989,39.989,0,0,0-1.777,11.57,17.055,17.055,0,0,1,5.805-5.568,14.934,14.934,0,0,1,7.3-1.777,15.968,15.968,0,0,1,7.8,1.915,13.759,13.759,0,0,1,5.548,5.765,19.909,19.909,0,0,1,2.053,9.458,21.688,21.688,0,0,1-2.271,10.187,16.405,16.405,0,0,1-6.179,6.674,16.579,16.579,0,0,1-8.648,2.329q-9.518,0-13.781-6.91t-4.265-19.7a46.034,46.034,0,0,1,2.409-15.637,22.434,22.434,0,0,1,6.97-10.286,16.923,16.923,0,0,1,10.839-3.613,18.921,18.921,0,0,1,10.74,3.159Zm-20.277,35.42a11.337,11.337,0,0,0,3.633,5.805,9.943,9.943,0,0,0,6.3,1.9,8.949,8.949,0,0,0,7.7-3.613q2.646-3.614,2.646-10.049,0-6.357-2.507-9.1a9.167,9.167,0,0,0-7.128-2.745,11.952,11.952,0,0,0-6.811,2.054,17.252,17.252,0,0,0-5.193,5.646A38.467,38.467,0,0,0,900.294,232.016ZM719.2,243.033l21.205-47.7H714.894V189.8h32.182V194.9L725.4,244.928ZM653.325,196.6a15.543,15.543,0,0,0-8.253-2.29,10.277,10.277,0,0,0-7.088,2.665,17.071,17.071,0,0,0-4.6,7.562,39.989,39.989,0,0,0-1.777,11.57,17.055,17.055,0,0,1,5.805-5.568,14.934,14.934,0,0,1,7.3-1.777,15.961,15.961,0,0,1,7.8,1.915,13.748,13.748,0,0,1,5.548,5.765,19.9,19.9,0,0,1,2.054,9.458,21.688,21.688,0,0,1-2.271,10.187,16.4,16.4,0,0,1-6.18,6.674,16.573,16.573,0,0,1-8.647,2.329q-9.518,0-13.781-6.91t-4.265-19.7a46.034,46.034,0,0,1,2.409-15.637,22.44,22.44,0,0,1,6.969-10.286,16.928,16.928,0,0,1,10.84-3.613,18.921,18.921,0,0,1,10.74,3.159Zm-20.277,35.42a11.337,11.337,0,0,0,3.633,5.805,9.943,9.943,0,0,0,6.3,1.9,8.949,8.949,0,0,0,7.7-3.613q2.646-3.614,2.646-10.049,0-6.357-2.508-9.1a9.165,9.165,0,0,0-7.127-2.745,11.952,11.952,0,0,0-6.811,2.054,17.252,17.252,0,0,0-5.193,5.646A38.467,38.467,0,0,0,633.048,232.016Zm-75.662-16.861a18.014,18.014,0,0,0-4.047.415,36.924,36.924,0,0,0-4.443,1.4h-5.33V189.8h28.786l-0.987,5.292H549.884v17.137a18.587,18.587,0,0,1,4.62-1.816,21.11,21.11,0,0,1,4.778-.514,14.909,14.909,0,0,1,7.818,2.014,13.321,13.321,0,0,1,5.193,5.864,21.157,21.157,0,0,1,1.836,9.181,19.339,19.339,0,0,1-2.271,9.516,15.766,15.766,0,0,1-6.436,6.358,20.093,20.093,0,0,1-9.694,2.25,21.275,21.275,0,0,1-8.589-1.678,24.323,24.323,0,0,1-7.167-4.876l4.107-3.949a15.329,15.329,0,0,0,11.728,5.015q5.409,0,8.391-3.278t2.981-9.556q0-6.159-2.665-8.884A9.515,9.515,0,0,0,557.386,215.155Zm-43.752,29.931a14.7,14.7,0,0,1-13.268-7.245q-4.54-7.247-4.541-20.869,0-13.584,4.541-20.81a15.794,15.794,0,0,1,26.536,0q4.54,7.226,4.541,20.81,0,13.623-4.541,20.869A14.7,14.7,0,0,1,513.634,245.086Zm0-50.82q-10.781,0-10.78,22.706a57.194,57.194,0,0,0,1.382,14.215l16.624-33.406A8.239,8.239,0,0,0,513.634,194.266Zm9.4,8.411-16.545,33.564a8.249,8.249,0,0,0,3.06,2.626,9.277,9.277,0,0,0,4.087.849q10.819,0,10.82-22.744Q524.454,207.732,523.032,202.677Zm-38.172,41.5H452.52v-5.41q10.7-10.266,15.834-15.992a45.426,45.426,0,0,0,7.108-9.812,19.593,19.593,0,0,0,1.974-8.628,9.88,9.88,0,0,0-2.586-7.246,9.551,9.551,0,0,0-7.128-2.626,14.19,14.19,0,0,0-6.5,1.323A17.526,17.526,0,0,0,456,200.268l-4.581-3.553a19.773,19.773,0,0,1,16.624-7.779,18.33,18.33,0,0,1,8.727,1.974,13.945,13.945,0,0,1,5.686,5.41,15.329,15.329,0,0,1,1.975,7.779,21.866,21.866,0,0,1-2.33,9.753,47.141,47.141,0,0,1-7.483,10.425q-5.152,5.685-14.551,14.255h25.627Zm-66.82-48.766v19.032h21.323v5.529H418.04v24.2h-6.792V189.8h32.025l-0.83,5.608h-24.4Zm-65.715,3.277a17.23,17.23,0,0,0-11.412-4.028,16.3,16.3,0,0,0-8.47,2.212,15.236,15.236,0,0,0-5.963,7.186q-2.231,4.976-2.231,12.913a32.623,32.623,0,0,0,2.133,12.754,15.031,15.031,0,0,0,5.824,7.226,16.089,16.089,0,0,0,8.549,2.251,18.581,18.581,0,0,0,7.108-1.224,22.062,22.062,0,0,0,5.528-3.317l3.554,4.5a20.663,20.663,0,0,1-6.792,4.3,25.313,25.313,0,0,1-9.477,1.619,22.626,22.626,0,0,1-12.063-3.277,22.266,22.266,0,0,1-8.411-9.615,34.733,34.733,0,0,1-3.06-15.222,34.066,34.066,0,0,1,3.119-15.183,22.65,22.65,0,0,1,8.411-9.6,21.933,21.933,0,0,1,11.728-3.257,26.277,26.277,0,0,1,8.746,1.283,24.147,24.147,0,0,1,7.009,4.008Zm-161.064-6.14a16.928,16.928,0,0,1,10.84-3.613,18.921,18.921,0,0,1,10.74,3.159l-2.606,4.5a15.543,15.543,0,0,0-8.253-2.29,10.277,10.277,0,0,0-7.088,2.665,17.071,17.071,0,0,0-4.6,7.562,39.989,39.989,0,0,0-1.777,11.57,17.055,17.055,0,0,1,5.805-5.568,14.934,14.934,0,0,1,7.305-1.777,15.961,15.961,0,0,1,7.8,1.915,13.748,13.748,0,0,1,5.548,5.765,19.9,19.9,0,0,1,2.054,9.458,21.688,21.688,0,0,1-2.271,10.187,16.405,16.405,0,0,1-6.179,6.674,16.579,16.579,0,0,1-8.648,2.329q-9.518,0-13.781-6.91t-4.265-19.7a46.034,46.034,0,0,1,2.409-15.637A22.44,22.44,0,0,1,191.261,192.549Zm-1.3,39.467a11.337,11.337,0,0,0,3.633,5.805,9.943,9.943,0,0,0,6.3,1.9,8.949,8.949,0,0,0,7.7-3.613q2.646-3.614,2.646-10.049,0-6.357-2.507-9.1a9.168,9.168,0,0,0-7.128-2.745,11.952,11.952,0,0,0-6.811,2.054,17.252,17.252,0,0,0-5.193,5.646A38.467,38.467,0,0,0,189.958,232.016Zm-76.28-43.08a18.924,18.924,0,0,1,10.741,3.159l-2.606,4.5a15.546,15.546,0,0,0-8.253-2.29,10.277,10.277,0,0,0-7.088,2.665,17.071,17.071,0,0,0-4.6,7.562A39.955,39.955,0,0,0,100.1,216.1a17.044,17.044,0,0,1,5.8-5.568,14.936,14.936,0,0,1,7.3-1.777,15.968,15.968,0,0,1,7.8,1.915,13.748,13.748,0,0,1,5.548,5.765A19.909,19.909,0,0,1,128.6,225.9a21.7,21.7,0,0,1-2.27,10.187,16.408,16.408,0,0,1-6.18,6.674,16.576,16.576,0,0,1-8.648,2.329q-9.516,0-13.781-6.91t-4.265-19.7a46.032,46.032,0,0,1,2.409-15.637,22.439,22.439,0,0,1,6.969-10.286A16.925,16.925,0,0,1,113.678,188.936Zm-12.142,43.08a11.337,11.337,0,0,0,3.633,5.805,9.943,9.943,0,0,0,6.3,1.9,8.95,8.95,0,0,0,7.7-3.613q2.645-3.614,2.646-10.049,0-6.357-2.508-9.1a9.165,9.165,0,0,0-7.127-2.745,11.955,11.955,0,0,0-6.812,2.054,17.249,17.249,0,0,0-5.192,5.646A38.424,38.424,0,0,0,101.536,232.016ZM75.153,243.092a22.913,22.913,0,0,1-9.872,1.994,22.3,22.3,0,0,1-9.832-2.013,14.98,14.98,0,0,1-6.338-5.509,14.448,14.448,0,0,1-2.191-7.838q0-9.161,10.9-14.176a16.851,16.851,0,0,1-6.575-5.054,12.281,12.281,0,0,1-2.113-7.384,12.54,12.54,0,0,1,2.468-7.9,14.808,14.808,0,0,1,6.239-4.738,19.949,19.949,0,0,1,7.6-1.54,20.878,20.878,0,0,1,7.9,1.5,14.019,14.019,0,0,1,6.061,4.62,12.437,12.437,0,0,1,2.349,7.7,10.39,10.39,0,0,1-2.349,6.733A23.7,23.7,0,0,1,72.31,215a21.33,21.33,0,0,1,8.569,5.983,13.156,13.156,0,0,1,3.08,8.627,14.316,14.316,0,0,1-2.29,7.957A15.338,15.338,0,0,1,75.153,243.092Zm-0.79-35.874a9.911,9.911,0,0,0,.829-4.225,8.493,8.493,0,0,0-2.567-6.535,10.15,10.15,0,0,0-7.187-2.389,10.093,10.093,0,0,0-7.187,2.409,8.757,8.757,0,0,0-2.567,6.713,7.656,7.656,0,0,0,1.362,4.777,9.576,9.576,0,0,0,3.672,2.844,64.142,64.142,0,0,0,6.891,2.527,25.282,25.282,0,0,0,4.3-2.922A9.725,9.725,0,0,0,74.363,207.218Zm0.869,16.861a12.629,12.629,0,0,0-4.521-3.435q-2.784-1.3-8.312-3.2a16.548,16.548,0,0,0-6.18,4.68,11.906,11.906,0,0,0-2.31,7.64,9.373,9.373,0,0,0,2.9,7.325q2.9,2.626,8.431,2.626a14.261,14.261,0,0,0,6.358-1.3,9.338,9.338,0,0,0,4.008-3.573,9.823,9.823,0,0,0,1.362-5.154A8.6,8.6,0,0,0,75.232,224.079ZM22.87,191.265L8.418,225.659H24.055l0.829-15.44h5.528v15.44h7.029v5.291H30.412v13.228h-6.4l-0.04-13.228H1.389v-4.817l15.953-37.2Zm123.7,47.109a16.2,16.2,0,0,0,6.4,1.224q5.409,0,8.391-3.278t2.981-9.556q0-6.159-2.665-8.884a9.515,9.515,0,0,0-7.127-2.725,18.023,18.023,0,0,0-4.048.415,36.861,36.861,0,0,0-4.442,1.4h-5.331V189.8h28.786l-0.987,5.292H147.047v17.137a18.587,18.587,0,0,1,4.62-1.816,21.11,21.11,0,0,1,4.778-.514,14.906,14.906,0,0,1,7.818,2.014,13.309,13.309,0,0,1,5.193,5.864,21.157,21.157,0,0,1,1.836,9.181,19.35,19.35,0,0,1-2.27,9.516,15.768,15.768,0,0,1-6.437,6.358,20.09,20.09,0,0,1-9.694,2.25,21.266,21.266,0,0,1-8.588-1.678,24.3,24.3,0,0,1-7.167-4.876l4.106-3.949A16.046,16.046,0,0,0,146.573,238.374Zm91.336-46.181a21.932,21.932,0,0,1,11.727-3.257,26.279,26.279,0,0,1,8.747,1.283,24.16,24.16,0,0,1,7.009,4.008l-3.83,4.462a17.23,17.23,0,0,0-11.412-4.028,16.3,16.3,0,0,0-8.47,2.212,15.236,15.236,0,0,0-5.963,7.186q-2.231,4.976-2.231,12.913a32.642,32.642,0,0,0,2.132,12.754,15.038,15.038,0,0,0,5.825,7.226,16.089,16.089,0,0,0,8.549,2.251,18.581,18.581,0,0,0,7.108-1.224,22.062,22.062,0,0,0,5.528-3.317l3.554,4.5a20.663,20.663,0,0,1-6.792,4.3,25.313,25.313,0,0,1-9.477,1.619,22.624,22.624,0,0,1-12.063-3.277,22.259,22.259,0,0,1-8.411-9.615,34.718,34.718,0,0,1-3.061-15.222,34.066,34.066,0,0,1,3.12-15.183A22.65,22.65,0,0,1,237.909,192.193Zm44.116,0.356a16.923,16.923,0,0,1,10.839-3.613A18.921,18.921,0,0,1,303.6,192.1L301,196.6a15.543,15.543,0,0,0-8.253-2.29,10.278,10.278,0,0,0-7.088,2.665,17.071,17.071,0,0,0-4.6,7.562,39.989,39.989,0,0,0-1.777,11.57,17.055,17.055,0,0,1,5.805-5.568,14.934,14.934,0,0,1,7.305-1.777,15.968,15.968,0,0,1,7.8,1.915,13.754,13.754,0,0,1,5.548,5.765,19.909,19.909,0,0,1,2.053,9.458,21.688,21.688,0,0,1-2.271,10.187,16.405,16.405,0,0,1-6.179,6.674,16.576,16.576,0,0,1-8.648,2.329q-9.516,0-13.781-6.91t-4.265-19.7a46.034,46.034,0,0,1,2.409-15.637A22.434,22.434,0,0,1,282.025,192.549Zm-1.3,39.467a11.337,11.337,0,0,0,3.633,5.805,9.944,9.944,0,0,0,6.3,1.9,8.95,8.95,0,0,0,7.7-3.613Q301,232.489,301,226.054q0-6.357-2.507-9.1a9.167,9.167,0,0,0-7.128-2.745,11.955,11.955,0,0,0-6.811,2.054,17.252,17.252,0,0,0-5.193,5.646A38.467,38.467,0,0,0,280.721,232.016Zm92.067-39.467a16.923,16.923,0,0,1,10.839-3.613,18.924,18.924,0,0,1,10.741,3.159l-2.607,4.5a15.54,15.54,0,0,0-8.252-2.29,10.275,10.275,0,0,0-7.088,2.665,17.072,17.072,0,0,0-4.6,7.562,40.024,40.024,0,0,0-1.777,11.57,17.055,17.055,0,0,1,5.805-5.568,14.936,14.936,0,0,1,7.305-1.777,15.968,15.968,0,0,1,7.8,1.915,13.748,13.748,0,0,1,5.548,5.765,19.909,19.909,0,0,1,2.053,9.458,21.7,21.7,0,0,1-2.27,10.187,16.408,16.408,0,0,1-6.18,6.674,16.576,16.576,0,0,1-8.648,2.329q-9.516,0-13.781-6.91t-4.264-19.7a46.036,46.036,0,0,1,2.408-15.637A22.441,22.441,0,0,1,372.788,192.549Zm-1.3,39.467a11.33,11.33,0,0,0,3.633,5.805,9.943,9.943,0,0,0,6.3,1.9,8.95,8.95,0,0,0,7.7-3.613q2.645-3.614,2.645-10.049,0-6.357-2.507-9.1a9.165,9.165,0,0,0-7.127-2.745,11.955,11.955,0,0,0-6.812,2.054,17.262,17.262,0,0,0-5.193,5.646A38.42,38.42,0,0,0,371.485,232.016ZM616.76,194.9l-21.678,50.03-6.2-1.9,21.205-47.7H584.578V189.8H616.76V194.9Zm87.247,0.514H679.6v19.032h21.323v5.529H679.6v24.2h-6.792V189.8h32.024Zm69.352-.948a14.191,14.191,0,0,0-6.5,1.323,17.526,17.526,0,0,0-5.232,4.481l-4.581-3.553a19.773,19.773,0,0,1,16.624-7.779,18.33,18.33,0,0,1,8.727,1.974,13.939,13.939,0,0,1,5.686,5.41,15.329,15.329,0,0,1,1.975,7.779,21.866,21.866,0,0,1-2.33,9.753,47.141,47.141,0,0,1-7.483,10.425q-5.153,5.685-14.551,14.255h25.627l-0.829,5.646h-32.34v-5.41q10.7-10.266,15.834-15.992a45.426,45.426,0,0,0,7.108-9.812,19.593,19.593,0,0,0,1.974-8.628,9.88,9.88,0,0,0-2.586-7.246A9.547,9.547,0,0,0,773.359,194.464Zm37.475-1.915a16.927,16.927,0,0,1,10.839-3.613,18.922,18.922,0,0,1,10.741,3.159l-2.606,4.5a15.543,15.543,0,0,0-8.253-2.29,10.277,10.277,0,0,0-7.088,2.665,17.071,17.071,0,0,0-4.6,7.562,39.989,39.989,0,0,0-1.777,11.57,17.061,17.061,0,0,1,5.8-5.568,14.94,14.94,0,0,1,7.306-1.777,15.961,15.961,0,0,1,7.8,1.915,13.748,13.748,0,0,1,5.548,5.765A19.9,19.9,0,0,1,836.6,225.9a21.688,21.688,0,0,1-2.271,10.187,16.4,16.4,0,0,1-6.18,6.674,16.573,16.573,0,0,1-8.647,2.329q-9.517,0-13.781-6.91t-4.265-19.7a46.034,46.034,0,0,1,2.409-15.637A22.44,22.44,0,0,1,810.834,192.549Zm-1.3,39.467a11.337,11.337,0,0,0,3.633,5.805,9.943,9.943,0,0,0,6.3,1.9,8.949,8.949,0,0,0,7.7-3.613q2.646-3.614,2.646-10.049,0-6.357-2.508-9.1a9.165,9.165,0,0,0-7.127-2.745,11.958,11.958,0,0,0-6.812,2.054,17.249,17.249,0,0,0-5.192,5.646A38.467,38.467,0,0,0,809.531,232.016Zm47.951-39.823a21.932,21.932,0,0,1,11.727-3.257,26.279,26.279,0,0,1,8.747,1.283,24.172,24.172,0,0,1,7.009,4.008l-3.831,4.462a17.228,17.228,0,0,0-11.411-4.028,16.3,16.3,0,0,0-8.47,2.212,15.236,15.236,0,0,0-5.963,7.186q-2.23,4.976-2.231,12.913a32.642,32.642,0,0,0,2.132,12.754,15.038,15.038,0,0,0,5.825,7.226,16.089,16.089,0,0,0,8.549,2.251,18.573,18.573,0,0,0,7.107-1.224,22.05,22.05,0,0,0,5.529-3.317l3.553,4.5a20.658,20.658,0,0,1-6.791,4.3,25.316,25.316,0,0,1-9.477,1.619,22.63,22.63,0,0,1-12.064-3.277,22.264,22.264,0,0,1-8.41-9.615,34.718,34.718,0,0,1-3.061-15.222,34.066,34.066,0,0,1,3.12-15.183A22.65,22.65,0,0,1,857.482,192.193Zm101.231-.928-14.452,34.394H959.9l0.83-15.44h5.528v15.44h7.029v5.291h-7.029v13.228h-6.4l-0.039-13.228H937.232v-4.817l15.953-37.2Z"/>
</svg>
